<svg xmlns="http://www.w3.org/2000/svg" width="240" height="160" viewBox="0 0 240 160">
  <rect width="240" height="53.3" fill="#ED2024"/>
  <rect y="53.3" width="240" height="53.3" fill="#FFFFFF"/>
  <rect y="106.6" width="240" height="53.4" fill="#21B24B"/>
  <g transform="translate(120,80)">
    <polygon points="71.8,47.0 98.0,50.0 71.8,53.0" fill="#F9DD16"/>
    <polygon points="71.7,53.6 95.9,64.1 70.0,59.2" fill="#F9DD16"/>
    <polygon points="69.7,59.8 89.7,77.0 66.3,64.7" fill="#F9DD16"/>
    <polygon points="65.9,65.2 79.9,87.5 61.3,68.9" fill="#F9DD16"/>
    <polygon points="60.7,69.2 67.5,94.7 55.2,71.4" fill="#F9DD16"/>
    <polygon points="54.6,71.5 53.6,97.9 48.7,72.0" fill="#F9DD16"/>
    <polygon points="48.0,71.9 39.3,96.8 42.3,70.6" fill="#F9DD16"/>
    <polygon points="41.7,70.4 26.0,91.6 36.5,67.4" fill="#F9DD16"/>
    <polygon points="36.0,67.0 14.8,82.6 32.0,62.7" fill="#F9DD16"/>
    <polygon points="31.6,62.1 6.8,70.8 29.1,56.8" fill="#F9DD16"/>
    <polygon points="28.9,56.2 2.5,57.2 28.0,50.3" fill="#F9DD16"/>
    <polygon points="28.0,49.7 2.5,42.8 28.9,43.8" fill="#F9DD16"/>
    <polygon points="29.1,43.2 6.8,29.2 31.6,37.9" fill="#F9DD16"/>
    <polygon points="32.0,37.3 14.8,17.4 36.0,33.0" fill="#F9DD16"/>
    <polygon points="36.5,32.6 26.0,8.4 41.7,29.6" fill="#F9DD16"/>
    <polygon points="42.3,29.4 39.3,3.2 48.0,28.1" fill="#F9DD16"/>
    <polygon points="48.7,28.0 53.6,2.1 54.6,28.5" fill="#F9DD16"/>
    <polygon points="55.2,28.6 67.5,5.3 60.7,30.8" fill="#F9DD16"/>
    <polygon points="61.3,31.1 79.9,12.5 65.9,34.8" fill="#F9DD16"/>
    <polygon points="66.3,35.3 89.7,23.0 69.7,40.2" fill="#F9DD16"/>
    <polygon points="70.0,40.8 95.9,35.9 71.7,46.4" fill="#F9DD16"/>
    <circle cx="0" cy="0" r="22" fill="#F9DD16"/>
  </g>
</svg>